<?xml version="1.0" encoding="UTF-8"?>
<!-- Created with Inkscape (http://www.inkscape.org/) -->
<svg width="70mm" height="83mm" version="1.1" viewBox="0 0 70 83" xmlns="http://www.w3.org/2000/svg">
 <path d="m18.679 29.695-0.77308 0.28836v6.028l-5.933 2.1937v-5.8301l-0.77308 0.28887v5.827l-5.7924 2.142v0.68884l5.7924-2.142v6.0518l-5.7924 2.142v0.68833l5.7924-2.142v5.8441l0.77308-0.28887v-5.841l5.933-2.1942v5.8193l0.77308-0.28887v-5.8162l6.0151-2.2242v-0.68833l-6.0151 2.2242v-6.0513l5.7909-2.1415v-0.68885l-5.7909 2.1415zm-0.77308 7.0053v6.0513l-5.933 2.1942v-6.0518z"/>
 <path d="m42.18 39.087a5.5413 7.5869 74.945 0 1-5.1297 7.5799 5.5413 7.5869 74.945 0 1-9.2295-2.7532 5.5413 7.5869 74.945 0 1 5.1297-7.5799 5.5413 7.5869 74.945 0 1 9.2295 2.7532z" fill-rule="evenodd" stroke="#000" stroke-width=".25384"/>
 <path d="m27.666 42.27v39.966" stroke="#000" stroke-width=".51846"/>
</svg>
