<?xml version="1.0" encoding="UTF-8"?>
<!-- Created with Inkscape (http://www.inkscape.org/) -->
<svg width="70mm" height="83mm" version="1.1" viewBox="0 0 70 83" xmlns="http://www.w3.org/2000/svg">
 <g stroke="#000">
  <path d="m42.18 39.087a5.5413 7.5869 74.945 0 1-5.1297 7.5799 5.5413 7.5869 74.945 0 1-9.2295-2.7532 5.5413 7.5869 74.945 0 1 5.1297-7.5799 5.5413 7.5869 74.945 0 1 9.2295 2.7532z" fill-rule="evenodd" stroke-width=".25384"/>
  <path d="m42.334 40.73v-39.966" stroke-width=".51846"/>
 </g>
 <path d="m9.3594 33.282v8.0465h0.03219l0.08343 5.9074 9.8538-1.9551v5.9784l1.6956 1e-5v-6.3148l1e-6 -1.7318h-0.02431l-0.09132-6.4245-9.8538 1.9551v-5.4614zm9.9694 5.8608-1e-6 4.0699 1e-6 0.0335-8.2738 1.6352-1e-6 -3.5529v-0.55054z" stroke-width=".3369"/>
</svg>
