<svg width="200" height="719" version="1.1" viewBox="0 0 200 719" xml:space="preserve" xmlns="http://www.w3.org/2000/svg"><g fill="#00274a" stroke="#00274a" stroke-width="1.5"><g transform="translate(-100,120)"><path d="m51.82 365.12h1220.2"/><path d="m51.82 396.15h1220.2"/><path d="m52.084 427.18h1220.2"/><path d="m51.817 458.1h1220.2"/><path d="m51.82 489.12h1220.2"/></g><path d="m-48.18 165.57h1220.2"/><path d="m-48.15 196.6h1220.2"/><path d="m-48.107 227.63h1220.2"/><path d="m-48.182 258.66h1220.2"/><path d="m-47.555 289.69h1220.2"/><path d="m-48.807 41.45h1220.2"/><path d="m-48.777 72.481h1220.2"/><path d="m-48.734 103.51h1220.2"/><path d="m-48.809 134.54h1220.2"/><path d="m-48.837 10.419h1220.2"/><path d="m-48.139 640.15h1220.2"/><path d="m-48.109 671.18h1220.2"/><path d="m-48.109 671.18h1220.2"/><path d="m-48.079 702.21h1220.2"/></g></svg>
