<svg width="175" height="512" version="1.1" viewBox="0 0 175 512" xmlns="http://www.w3.org/2000/svg">
 <g transform="matrix(2.9092 0 0 2.9092 -1230 -125.91)" stroke="#000">
  <path transform="matrix(.94788 -.31862 .36879 .92951 0 0)" d="m376.06 331.29a28.627 21.008 0 0 1-28.627 21.008 28.627 21.008 0 0 1-28.628-21.008 28.627 21.008 0 0 1 28.628-21.008 28.627 21.008 0 0 1 28.627 21.008z" fill-rule="evenodd" stroke-width=".96008"/>
  <path d="m479.22 194.33v-151.05" stroke-width="1.9595"/>
 </g>
 <path d="m118.35 167.74-21.45 31.593 24.781 29.054-36.675-10.637-19.974 32.546-1.2167-38.167-37.126-8.9391 35.923-12.952-2.9709-38.071 23.419 30.163z" fill="#ff0" fill-rule="evenodd"/>
</svg>
