<svg width="100mm" height="100mm" version="1.1" viewBox="0 0 100 100" xmlns="http://www.w3.org/2000/svg">
 <g transform="translate(36.066 -.042147)">
  <g transform="matrix(.37792 0 0 .37792 -21.637 .014521)" stroke="#00274a">
   <g fill="none" stroke-width=".1915">
    <rect transform="rotate(-90)" x="-264.58" y="76.701" width="7.5571" height="39.049"/>
    <rect transform="rotate(-90)" x="-257.03" y="76.701" width="7.5571" height="39.049"/>
    <rect transform="rotate(-90)" x="-249.47" y="76.701" width="7.5571" height="39.049"/>
    <rect transform="rotate(-90)" x="-241.91" y="76.701" width="7.5571" height="39.049"/>
    <rect transform="rotate(-90)" x="-234.35" y="76.701" width="7.5571" height="39.049"/>
    <rect transform="rotate(-90)" x="-226.8" y="76.701" width="7.5571" height="39.049"/>
    <rect transform="rotate(-90)" x="-219.24" y="76.701" width="7.5571" height="39.049"/>
    <rect transform="rotate(-90)" x="-211.68" y="76.701" width="7.5571" height="39.049"/>
    <rect transform="rotate(-90)" x="-204.13" y="76.701" width="7.5571" height="39.049"/>
    <rect transform="rotate(-90)" x="-196.57" y="76.701" width="7.5571" height="39.049"/>
    <rect transform="rotate(-90)" x="-189.01" y="76.701" width="7.5571" height="39.049"/>
    <rect transform="rotate(-90)" x="-181.46" y="76.701" width="7.5571" height="39.049"/>
    <rect transform="rotate(-90)" x="-173.9" y="76.701" width="7.5571" height="39.049"/>
    <rect transform="rotate(-90)" x="-166.34" y="76.701" width="7.5571" height="39.049"/>
    <rect transform="rotate(-90)" x="-158.78" y="76.701" width="7.5571" height="39.049"/>
    <rect transform="rotate(-90)" x="-151.23" y="76.701" width="7.5571" height="39.049"/>
    <rect transform="rotate(-90)" x="-143.67" y="76.701" width="7.5571" height="39.049"/>
    <rect transform="rotate(-90)" x="-136.11" y="76.701" width="7.5571" height="39.049"/>
    <rect transform="rotate(-90)" x="-128.56" y="76.701" width="7.5571" height="39.049"/>
    <rect transform="rotate(-90)" x="-121" y="76.701" width="7.5571" height="39.049"/>
    <rect transform="rotate(-90)" x="-113.44" y="76.701" width="7.5571" height="39.049"/>
    <rect transform="rotate(-90)" x="-105.88" y="76.701" width="7.5571" height="39.049"/>
    <rect transform="rotate(-90)" x="-98.327" y="76.701" width="7.5571" height="39.049"/>
    <rect transform="rotate(-90)" x="-90.77" y="76.701" width="7.5571" height="39.049"/>
    <rect transform="rotate(-90)" x="-83.213" y="76.701" width="7.5571" height="39.049"/>
    <rect transform="rotate(-90)" x="-75.655" y="76.701" width="7.5571" height="39.049"/>
    <rect transform="rotate(-90)" x="-68.098" y="76.701" width="7.5571" height="39.049"/>
    <rect transform="rotate(-90)" x="-60.541" y="76.701" width="7.5571" height="39.049"/>
    <rect transform="rotate(-90)" x="-52.984" y="76.701" width="7.5571" height="39.049"/>
    <rect transform="rotate(-90)" x="-45.427" y="76.701" width="7.5571" height="39.049"/>
    <rect transform="rotate(-90)" x="-37.87" y="76.701" width="7.5571" height="39.049"/>
    <rect transform="rotate(-90)" x="-30.313" y="76.701" width="7.5571" height="39.049"/>
    <rect transform="rotate(-90)" x="-22.756" y="76.701" width="7.5571" height="39.049"/>
    <rect transform="rotate(-90)" x="-15.199" y="76.701" width="7.5571" height="39.049"/>
   </g>
   <g fill="#00274a" fill-rule="evenodd">
    <g stroke-width=".19175">
     <rect transform="rotate(-90)" x="-259.44" y="76.701" width="4.82" height="23.192"/>
     <rect transform="rotate(-90)" x="-251.88" y="76.701" width="4.82" height="23.192"/>
     <rect transform="rotate(-90)" x="-236.76" y="76.701" width="4.82" height="23.192"/>
     <rect transform="rotate(-90)" x="-229.21" y="76.701" width="4.82" height="23.192"/>
     <rect transform="rotate(-90)" x="-221.65" y="76.701" width="4.82" height="23.192"/>
     <rect transform="rotate(-90)" x="-206.54" y="76.701" width="4.82" height="23.192"/>
     <rect transform="rotate(-90)" x="-198.98" y="76.701" width="4.82" height="23.192"/>
     <rect transform="rotate(-90)" x="-183.87" y="76.701" width="4.82" height="23.192"/>
     <rect transform="rotate(-90)" x="-176.31" y="76.701" width="4.82" height="23.192"/>
     <rect transform="rotate(-90)" x="-168.75" y="76.701" width="4.82" height="23.192"/>
     <rect transform="rotate(-90)" x="-153.64" y="76.701" width="4.82" height="23.192"/>
     <rect transform="rotate(-90)" x="-146.08" y="76.701" width="4.82" height="23.192"/>
     <rect transform="rotate(-90)" x="-130.97" y="76.701" width="4.82" height="23.192"/>
     <rect transform="rotate(-90)" x="-123.41" y="76.701" width="4.82" height="23.192"/>
     <rect transform="rotate(-90)" x="-115.85" y="76.701" width="4.82" height="23.192"/>
     <rect transform="rotate(-90)" x="-100.74" y="76.701" width="4.82" height="23.192"/>
     <rect transform="rotate(-90)" x="-93.18" y="76.701" width="4.82" height="23.192"/>
     <rect transform="rotate(-90)" x="-78.065" y="76.701" width="4.82" height="23.192"/>
     <rect transform="rotate(-90)" x="-70.508" y="76.701" width="4.82" height="23.192"/>
     <rect transform="rotate(-90)" x="-62.951" y="76.701" width="4.82" height="23.192"/>
     <rect transform="rotate(-90)" x="-47.837" y="76.701" width="4.82" height="23.192"/>
    </g>
    <rect transform="rotate(-90)" x="-40.28" y="76.745" width="4.8203" height="23.149" stroke-width=".27847"/>
    <rect transform="rotate(-90)" x="-25.166" y="76.701" width="4.82" height="23.192" stroke-width=".19175"/>
    <rect transform="rotate(-90)" x="-17.609" y="76.701" width="4.82" height="23.192" stroke-width=".19175"/>
   </g>
   <rect transform="rotate(-90)" x="-7.6414" y="76.701" width="7.5571" height="39.049" fill="none" stroke-width=".1915"/>
   <rect transform="rotate(-90)" x="-10.051" y="76.701" width="4.82" height="23.192" fill="#00274a" fill-rule="evenodd" stroke-width=".19175"/>
  </g>
 </g>
</svg>
