<?xml version="1.0" encoding="UTF-8"?>
<!-- Created with Inkscape (http://www.inkscape.org/) -->
<svg width="1270" height="540" version="1.1" viewBox="0 0 1270 540" xml:space="preserve" xmlns="http://www.w3.org/2000/svg"><g fill="#00274a"><path d="m44.25 489.78c-54.855-46.249-18.847-69.237-3.1226-136.86 15.725-67.625-34.147-84.152-34.147-84.152 51.244-34.671 21.061-129.27 12.935-149.04-8.1255-19.775-5.7305-57.459 25.345-72.866-36.155 6.8316-53.997 53.297-25.345 121.97 28.652 68.675-20.41 100.33-19.914 100.02 58.235 46.7 10.744 116.44 3.6207 152.11-7.1238 35.667 36.621 71.897 40.627 68.821z"/><g stroke="#00274a"><path d="m152.76 196.2-32.39-156.16c-0.24552-4.2222 15.79-26.835 22.845-26.835 12.518 23.158-25.818 60.946-25.818 60.946-35.05 34.424-30.622 66.639-24.666 76.984 17.218 29.772 58.724 13.905 66.444 7.9801 10.681-9.3781 22.426-39.442-6.6968-54.227-29.123-14.785-41.153 11.042-41.96 17.218-2.1906 22.845 13.245 26.481 13.245 26.481-8.1017-10.606-9.6848-19.395-3.4817-31.292 2.4754-4.7475 10.519-10.697 21.085-9.6426 11.061 1.1043 18.864 10.826 20.234 15.631 12.619 38.006-29.486 41.284-29.486 41.284-65.243 3.904-15.183-78.674-11.855-83.025 51.9-43.068 27.853-78.556 28.432-76.239-16.918-12.371-35.411 30.271-35.363 34.893 21.445 134.89 33.632 149.66 35.096 157.14 1.4633 7.4823-0.55664 16.749-3.5799 19.932-3.0232 3.1836-16.956 7.2739-16.807 6.7788 19.403-22.532-6.8848-21.593-6.8848-21.593-20.927 1.98-6.2918 22.798 4.7724 24.723 35.473-3.2326 26.796-30.535 26.835-30.982z" stroke-width=".66991px"/><path d="m52.51 44.82v444.96" stroke-width="1.3844"/><g transform="matrix(.6678 0 0 .6678 13.54 257.61)" fill-rule="evenodd"><path d="m141.28 170.37c-14.382 2.0838-22.838 10.779-26.914 22.841-2.5812 7.8574-1.3661 16.187-0.68263 17.476 1.4891 2.8084 4.0253 6.6898 6.8178 8.5876s5.7317 3.3037 9.0644 3.3047c7.6221 8.5e-4 13.964-5.5189 13.964-12.931-5.3e-4 -7.4113-6.1794-13.419-13.801-13.418-2.572 5e-3 -3.4009-0.21241-5.5832 1.1112-8.6822-0.57685 6.9927-16.793 16.198-17.202 31.258-1.3902 35.38 35.449 33.328 48.254-7.2179 45.024-34.301 77.334-64.615 88.955 48.28-3.451 98.002-68.422 88.525-110.3-5.7931-25.599-35.081-40.561-56.3-36.677z"/><circle cx="228.61" cy="232.52" r="9.9963"/><circle cx="228.61" cy="187.48" r="9.9963"/></g><g stroke-width="1.5"><path d="m51.82 365.12h1220.2"/><path d="m51.82 396.15h1220.2"/><path d="m52.084 427.18h1220.2"/><path d="m51.817 458.1h1220.2"/><path d="m51.82 489.12h1220.2"/></g><g stroke-width="1.5"><path d="m51.82 45.57h1220.2"/><path d="m51.85 76.601h1220.2"/><path d="m51.893 107.63h1220.2"/><path d="m51.818 138.66h1220.2"/><path d="m52.445 169.69h1220.2"/></g></g></g><g fill="#00274a"><path d="m206.26 47.376v76.82c27.418-12.015 28.36-39.123 3.0235-28.562v-48.257zm10.632 49.244c13.997 0.06941 2.9913 17.492-7.6039 24.33v-23.217c3.0943-0.77975 5.6042-1.1237 7.6039-1.1138z"/><path d="m234.98 0.43725v76.82c27.418-12.015 28.36-39.123 3.0235-28.562v-48.257zm10.632 49.244c13.997 0.06941 2.9913 17.492-7.6039 24.33v-23.217c3.0943-0.77975 5.6042-1.1237 7.6039-1.1138z"/><path d="m263.96 62.493v76.82c27.418-12.015 28.36-39.123 3.0235-28.562v-48.257zm10.632 49.244c13.997 0.0694 2.9913 17.492-7.6039 24.33v-23.217c3.0943-0.77975 5.6042-1.1237 7.6039-1.1138z"/><path d="m350.89 31.477v76.82c27.418-12.015 28.36-39.123 3.0235-28.562v-48.257zm10.632 49.244c13.997 0.0694 2.9913 17.492-7.6039 24.33v-23.217c3.0943-0.77975 5.6042-1.1237 7.6039-1.1138z"/><path d="m292.94 16.876v76.82c27.418-12.015 28.36-39.123 3.0235-28.562v-48.257zm10.632 49.244c13.997 0.06941 2.9913 17.492-7.6039 24.33v-23.217c3.0943-0.77975 5.6042-1.1237 7.6039-1.1138z"/><path d="m321.91 78.413v76.82c27.418-12.015 28.36-39.123 3.0235-28.562v-48.257zm10.632 49.244c13.997 0.0694 2.9913 17.492-7.6039 24.33v-23.217c3.0943-0.77975 5.6042-1.1237 7.6039-1.1138z"/><path d="m205.96 397.85v76.82c27.418-12.015 28.36-39.123 3.0235-28.562v-48.257zm10.632 49.244c13.997 0.0694 2.9913 17.492-7.6039 24.33v-23.217c3.0943-0.77975 5.6042-1.1237 7.6039-1.1138z"/><path d="m235.01 351.01v76.82c27.418-12.015 28.36-39.123 3.0235-28.562v-48.257zm10.632 49.244c13.997 0.0694 2.9913 17.492-7.6039 24.33v-23.217c3.0943-0.77975 5.6042-1.1237 7.6039-1.1138z"/><path d="m263.96 412.98v76.82c27.418-12.015 28.36-39.123 3.0235-28.562v-48.257zm10.632 49.244c13.997 0.0694 2.9913 17.492-7.6039 24.33v-23.217c3.0943-0.77975 5.6042-1.1237 7.6039-1.1138z"/><path d="m350.89 382.06v76.82c27.418-12.015 28.36-39.123 3.0235-28.562v-48.257zm10.632 49.244c13.997 0.0694 2.9913 17.492-7.6039 24.33v-23.217c3.0943-0.77975 5.6042-1.1237 7.6039-1.1138z"/><path d="m292.94 366.93v76.82c27.418-12.015 28.36-39.123 3.0235-28.562v-48.257zm10.632 49.244c13.997 0.0694 2.9913 17.492-7.6039 24.33v-23.217c3.0943-0.77975 5.6042-1.1237 7.6039-1.1138z"/><path d="m321.91 428.87v76.82c27.418-12.015 28.36-39.123 3.0235-28.562v-48.257zm10.632 49.244c13.997 0.0694 2.9913 17.492-7.6039 24.33v-23.217c3.0943-0.77975 5.6042-1.1237 7.6039-1.1138z"/></g></svg>
