<?xml version="1.0" encoding="UTF-8"?>
<!-- Created with Inkscape (http://www.inkscape.org/) -->
<svg width="70mm" height="83mm" version="1.1" viewBox="0 0 70 83" xmlns="http://www.w3.org/2000/svg">
 <path d="m12.548 14.471v33.671c10.693-5.2664 11.06-17.148 1.1792-12.519v-21.152zm4.1465 21.584c5.4591 0.0304 1.1666 7.6667-2.9655 10.664v-10.176c1.2068-0.34177 2.1857-0.49252 2.9655-0.48818z" stroke-width=".27984"/>
 <path d="m42.18 39.087a5.5413 7.5869 74.945 0 1-5.1297 7.5799 5.5413 7.5869 74.945 0 1-9.2295-2.7532 5.5413 7.5869 74.945 0 1 5.1297-7.5799 5.5413 7.5869 74.945 0 1 9.2295 2.7532z" fill-rule="evenodd" stroke="#000" stroke-width=".25384"/>
 <path d="m27.666 42.27v39.966" stroke="#000" stroke-width=".51846"/>
</svg>
